<svg width="17" height="17" viewBox="0 0 17 17" fill="none" xmlns="http://www.w3.org/2000/svg">
<path d="M15.9062 1.78125C16.25 1.875 16.5 2.15625 16.5 2.5C16.5 10.5312 10 17 2 17C1.625 17 1.34375 16.7812 1.25 16.4375L0.5 13.1875C0.4375 12.8438 0.59375 12.4688 0.9375 12.3125L4.4375 10.8125C4.75 10.6875 5.09375 10.7812 5.3125 11.0312L6.875 12.9375C9.3125 11.7812 11.2812 9.78125 12.4062 7.40625L10.5 5.84375C10.25 5.625 10.1562 5.28125 10.2812 4.96875L11.7812 1.46875C11.9375 1.125 12.3125 0.9375 12.6562 1.03125L15.9062 1.78125Z" fill="#96BA49"/>
</svg>
